<?xml version="1.0" encoding="UTF-8" standalone="no"?>
<!-- Created with Inkscape (http://www.inkscape.org/) -->

<svg
   xmlns:dc="http://purl.org/dc/elements/1.1/"
   xmlns:cc="http://creativecommons.org/ns#"
   xmlns:rdf="http://www.w3.org/1999/02/22-rdf-syntax-ns#"
   xmlns:svg="http://www.w3.org/2000/svg"
   xmlns="http://www.w3.org/2000/svg"
   xmlns:sodipodi="http://sodipodi.sourceforge.net/DTD/sodipodi-0.dtd"
   xmlns:inkscape="http://www.inkscape.org/namespaces/inkscape"
   width="256mm"
   height="256mm"
   viewBox="0 0 907.08661 907.08661"
   id="svg2"
   version="1.1"
   inkscape:version="0.91 r13725"
   sodipodi:docname="Icon.svg"
   inkscape:export-filename="D:\Dropbox\Visual studio\Projects\emuall\Emuall\Icon.png"
   inkscape:export-xdpi="25.4"
   inkscape:export-ydpi="25.4">
  <title
     id="title3408">Emuall</title>
  <defs
     id="defs4" />
  <sodipodi:namedview
     id="base"
     pagecolor="#ffffff"
     bordercolor="#666666"
     borderopacity="1.0"
     inkscape:pageopacity="0.0"
     inkscape:pageshadow="2"
     inkscape:zoom="0.24748737"
     inkscape:cx="465.27436"
     inkscape:cy="809.62746"
     inkscape:document-units="px"
     inkscape:current-layer="layer2"
     showgrid="false"
     inkscape:window-width="1920"
     inkscape:window-height="1017"
     inkscape:window-x="1432"
     inkscape:window-y="-8"
     inkscape:window-maximized="1" />
  <metadata
     id="metadata7">
    <rdf:RDF>
      <cc:Work
         rdf:about="">
        <dc:format>image/svg+xml</dc:format>
        <dc:type
           rdf:resource="http://purl.org/dc/dcmitype/StillImage" />
        <dc:title>Emuall</dc:title>
      </cc:Work>
    </rdf:RDF>
  </metadata>
  <g
     inkscape:groupmode="layer"
     id="layer3"
     inkscape:label="Wire">
    <path
       style="color:#000000;font-style:normal;font-variant:normal;font-weight:normal;font-stretch:normal;font-size:medium;line-height:normal;font-family:sans-serif;text-indent:0;text-align:start;text-decoration:none;text-decoration-line:none;text-decoration-style:solid;text-decoration-color:#000000;letter-spacing:normal;word-spacing:normal;text-transform:none;direction:ltr;block-progression:tb;writing-mode:lr-tb;baseline-shift:baseline;text-anchor:start;white-space:normal;clip-rule:nonzero;display:inline;overflow:visible;visibility:visible;opacity:1;isolation:auto;mix-blend-mode:normal;color-interpolation:sRGB;color-interpolation-filters:linearRGB;solid-color:#000000;solid-opacity:1;fill:#000000;fill-opacity:1;fill-rule:evenodd;stroke:none;stroke-width:1px;stroke-linecap:butt;stroke-linejoin:miter;stroke-miterlimit:4;stroke-dasharray:none;stroke-dashoffset:0;stroke-opacity:1;color-rendering:auto;image-rendering:auto;shape-rendering:auto;text-rendering:auto;enable-background:accumulate"
       d="M 647.46435,84.541014 C 634.93347,84.328389 621.09203,85.88482 607.87299,87.646981 554.99686,94.695616 498.44632,123.84767 443.79512,187.69891 l 13.68553,11.18064 c 54.4693,-63.63873 100.67496,-89.79626 153.28199,-96.80903 52.60702,-7.012749 97.07535,1.39682 133.43674,10.76795 72.42261,18.66493 112.36149,86.85566 108.63955,154.00157 -3.62325,65.36574 -42.65619,145.00334 -97.62839,220.87593 C 700.23832,563.58855 630.23951,626.35211 574.00303,658.14408 517.8539,689.88667 387.76434,719.94857 264.56611,742.91234 141.36789,765.87611 0.43341027,727.43857 0.43341027,727.43857 l -2.29507887,21.83131 c 0,0 144.3311686,37.59041 267.5633886,14.62029 C 388.93396,740.92006 529.82735,707.23366 586.43608,675.23126 642.95743,643.27824 712.99622,576.67735 768.05386,500.68688 823.11148,424.6964 865.91683,333.72573 869.56825,267.8518 873.32819,200.02035 820.30962,118.21013 747.23821,99.377997 719.94902,92.344949 685.05698,85.178901 647.46435,84.541014 Z"
       id="path3390"
       inkscape:connector-curvature="0"
       sodipodi:nodetypes="ssccssssssccssssss" />
  </g>
  <g
     inkscape:label="Laag 1"
     inkscape:groupmode="layer"
     id="layer1"
     transform="translate(0,-145.27559)">
    <rect
       style="fill:#b3b3b3;stroke:#000000;stroke-width:1.29288292"
       id="rect3345"
       width="942.03851"
       height="366.34912"
       x="268.80029"
       y="-68.860077"
       rx="32.291222"
       ry="32.352959"
       transform="matrix(0.71848881,0.69553852,-0.67341017,0.73926906,0,0)" />
  </g>
  <g
     inkscape:groupmode="layer"
     id="layer2"
     inkscape:label="Buttons">
    <path
       style="fill:#1a1a1a;stroke:#666666;stroke-width:1.51632786"
       d="m 311.92118,116.87745 c -9.04688,-8.7579 -23.16946,-8.30028 -31.66496,1.02607 l -47.46407,52.10601 -50.54473,-48.93019 c -9.0469,-8.75792 -23.16945,-8.30031 -31.66495,1.02603 l -32.12926,35.27148 c -8.4955,9.32634 -8.05159,23.88515 0.9953,32.64307 l 50.54472,48.93019 -47.46606,52.10821 c -8.4955,9.32635 -8.0516,23.88516 0.99531,32.64307 l 34.21459,33.12171 c 9.04689,8.75791 23.16948,8.30029 31.66497,-1.02605 l 47.46606,-52.10821 50.54687,48.93228 c 9.0469,8.75792 23.16947,8.30029 31.66494,-1.02606 l 32.12927,-35.27147 c 8.49549,-9.32635 8.05159,-23.88516 -0.9953,-32.64307 l -50.54686,-48.93226 47.46408,-52.10602 c 8.49549,-9.32636 8.05157,-23.88517 -0.9953,-32.64307 l -34.21462,-33.12172 z"
       id="rect3356"
       inkscape:connector-curvature="0" />
    <ellipse
       style="fill:#d40000;stroke:#666666;stroke-width:2.31316495"
       id="path3362"
       cx="763.47217"
       cy="58.246109"
       transform="matrix(0.71848881,0.69553852,-0.67341017,0.73926906,0,0)"
       rx="70.979401"
       ry="71.115105" />
    <ellipse
       cy="53.638031"
       cx="950.57062"
       id="circle3373"
       style="fill:#d40000;stroke:#666666;stroke-width:2.31316495"
       transform="matrix(0.71848881,0.69553852,-0.67341017,0.73926906,0,0)"
       rx="70.979401"
       ry="71.115105"
       inkscape:export-xdpi="25"
       inkscape:export-ydpi="25" />
  </g>
</svg>
